<svg width="231" height="200" viewBox="0 0 231 200" fill="none" xmlns="http://www.w3.org/2000/svg">
<g id="Layer_1" clip-path="url(#clip0_6_78)">
<path id="Vector" fill-rule="evenodd" clip-rule="evenodd" d="M83.4384 61.8652C96.4108 56.9712 112.674 58.8416 127.714 67.7052C152.974 82.5909 167.858 120.88 148.334 148.367C145.696 152.082 103.182 185.664 97.6052 186.583C86.6625 188.387 68.6603 185.98 57.1669 178.577C33.0246 163.038 24.4318 134.06 34.134 112.249C43.8363 90.4381 81.2971 62.6746 83.4384 61.8652Z" fill="#6D445C"/>
<path id="Vector_2" d="M89.8316 188.883C79.1396 188.883 65.771 186.165 56.2394 180.029C44.4436 172.436 35.5961 161.172 31.328 148.31C27.1643 135.76 27.6034 122.706 32.5653 111.551C42.4818 89.2591 80.2418 61.2304 82.8327 60.2527C96.6413 55.0442 113.319 57.2195 128.592 66.2206C142.895 74.6492 154.053 90.5271 157.712 107.658C160.94 122.774 158.111 137.586 149.745 149.365C147.017 153.206 104.289 187.23 97.8906 188.284C95.4962 188.679 92.7638 188.883 89.8316 188.883ZM84.0902 63.4615C82.9443 64.034 73.441 70.8202 62.4304 80.7779C52.9651 89.3383 40.6477 101.869 35.7182 112.949C25.9068 135.005 35.533 162.596 58.1098 177.127C69.1147 184.213 86.6957 186.631 97.3343 184.879C99.0325 184.6 107.632 179.011 123.029 167.155C135.846 157.285 145.914 148.805 146.939 147.366C154.739 136.383 157.37 122.535 154.345 108.375C150.881 92.1573 140.344 77.1414 126.846 69.1875C112.486 60.7298 96.9049 58.6435 84.0853 63.4647L84.0902 63.4615Z" fill="#620504"/>
<g id="Group" opacity="0.3">
<path id="Vector_3" fill-rule="evenodd" clip-rule="evenodd" d="M86.9221 60.7371C99.2532 57.3537 113.993 59.6179 127.717 67.7052C140.532 75.2572 150.673 88.8337 155.009 103.965C135.22 68.9789 110.999 58.4065 86.5161 66.5723C86.3393 67.6451 85.8455 69.1778 85.0347 71.1703C66.234 85.2446 61.8808 104.078 71.9749 127.669C66.2335 121.574 61.7277 109.749 62.7369 98.4187L62.7418 98.3863C62.7765 97.9957 62.8169 97.6068 62.8655 97.2186C63.1954 93.2293 62.18 92.315 59.8193 94.4757L58.9298 95.3652C51.3689 102.924 39.0846 115.084 36.9506 117.064C33.2389 123.452 33.5542 129.816 33.3116 136.161C33.4046 142.316 34.4438 148.996 36.6134 156.307C29.6323 143.061 28.2681 127.903 33.0682 114.893C51.4505 92.5592 69.6298 74.7324 86.9245 60.7338" fill="white"/>
</g>
<path id="Vector_4" d="M89.8316 188.883C79.1396 188.883 65.7709 186.165 56.2394 180.029C44.4427 172.436 35.5961 161.172 31.328 148.31C27.1634 135.76 27.6025 122.705 32.5644 111.551C42.4858 89.2502 80.2385 61.232 82.8327 60.2527C96.6396 55.0442 113.319 57.2195 128.592 66.2206C142.895 74.6492 154.053 90.5271 157.712 107.658C160.94 122.774 158.111 137.586 149.745 149.365C147.017 153.205 104.289 187.229 97.8906 188.284C95.4962 188.678 92.7638 188.883 89.8316 188.883ZM84.0853 63.4647C82.9403 64.0364 73.4378 70.8234 62.4255 80.7812C52.9643 89.3424 40.6429 101.872 35.7133 112.953C25.9019 135.009 35.5281 162.599 58.1057 177.131C69.1115 184.216 86.6908 186.635 97.3302 184.882C99.0284 184.603 107.628 179.014 123.025 167.157C135.842 157.292 145.91 148.808 146.935 147.369C154.735 136.386 157.366 122.538 154.341 108.378C150.877 92.1605 140.34 77.1447 126.842 69.1908C112.484 60.7298 96.9041 58.6443 84.0853 63.4647Z" fill="#620504"/>
<path id="Vector_5" fill-rule="evenodd" clip-rule="evenodd" d="M70.5808 86.5703C74.058 79.0021 79.7364 73.5429 86.6035 70.4037C87.7849 61.3468 95.3579 62.2493 93.0953 68.3012C101.675 65.5777 112.681 68.0586 121.223 72.2111C121.717 71.4358 122.491 70.8812 123.384 70.6631C124.277 70.445 125.22 70.5801 126.016 71.0404C126.812 71.5006 127.4 72.2503 127.656 73.1332C127.912 74.016 127.818 74.9638 127.393 75.7788C142.757 86.2266 151.866 103.811 151.771 120.296C152.696 120.522 153.507 121.074 154.058 121.851C154.608 122.627 154.859 123.576 154.766 124.523C154.673 125.47 154.242 126.352 153.551 127.007C152.861 127.662 151.957 128.045 151.006 128.087C150.441 131.019 149.527 133.872 148.285 136.586C139.003 156.779 114.085 161.954 92.6271 148.141C81.1912 140.782 73.0464 129.508 69.3379 117.527C68.6524 117.527 67.9867 117.297 67.4471 116.874C66.9074 116.451 66.5248 115.86 66.3603 115.195C66.1958 114.529 66.2588 113.828 66.5394 113.202C66.8199 112.577 67.3018 112.063 67.9082 111.744C66.295 103.062 67.0397 94.2792 70.5808 86.5703Z" fill="white"/>
<path id="Vector_6" d="M117.497 157.599C108.872 157.599 99.8783 154.86 91.6939 149.593C80.6995 142.51 72.1173 131.432 68.0214 119.066C67.2106 118.834 66.4754 118.391 65.89 117.784C65.3047 117.177 64.89 116.426 64.6877 115.607C64.4854 114.788 64.5028 113.93 64.738 113.12C64.9732 112.31 65.4179 111.576 66.0273 110.993C64.5475 102.011 65.5752 93.3387 69.0193 85.8506C72.427 78.4377 77.9582 72.71 85.0492 69.2344C85.739 65.5874 87.5407 62.9819 89.9715 62.1821C91.5079 61.6767 93.0444 62.0204 94.0859 63.0983C94.804 63.8447 95.1913 64.8385 95.2374 65.982C102.601 64.5377 111.867 66.0127 120.797 70.1061C121.63 69.3959 122.663 68.9614 123.753 68.8623C124.843 68.7632 125.937 69.0044 126.885 69.5527C127.832 70.1011 128.587 70.9296 129.044 71.9242C129.501 72.9188 129.639 74.0307 129.438 75.1068C143.847 85.4107 153.156 102.439 153.488 119.123C154.485 119.649 155.303 120.46 155.837 121.453C156.371 122.446 156.597 123.576 156.487 124.698C156.376 125.82 155.934 126.884 155.216 127.753C154.498 128.623 153.538 129.259 152.457 129.58C151.861 132.241 150.988 134.832 149.853 137.311C145.583 146.6 137.891 153.274 128.194 156.106C124.717 157.108 121.116 157.611 117.497 157.599ZM72.1488 87.2908C68.8705 94.4239 67.9899 102.771 69.6032 111.429C69.6704 111.79 69.6204 112.164 69.4603 112.495C69.3003 112.826 69.0387 113.097 68.7136 113.269C68.4472 113.408 68.2352 113.633 68.1117 113.908C67.9882 114.182 67.9601 114.49 68.0321 114.782C68.1041 115.074 68.272 115.333 68.5088 115.519C68.7457 115.704 69.0379 115.805 69.3387 115.805C69.7067 115.805 70.065 115.922 70.3613 116.141C70.6576 116.359 70.8762 116.666 70.9851 117.018C74.7049 129.034 82.9322 139.85 93.5603 146.695C104.378 153.659 116.647 155.883 127.225 152.795C135.949 150.248 142.872 144.238 146.719 135.87C147.903 133.279 148.774 130.557 149.314 127.76C149.389 127.377 149.591 127.032 149.888 126.779C150.184 126.526 150.558 126.381 150.947 126.367C151.479 126.34 151.983 126.123 152.369 125.756C152.755 125.389 152.996 124.897 153.051 124.367C153.105 123.838 152.968 123.306 152.665 122.869C152.362 122.431 151.912 122.116 151.398 121.981C151.013 121.896 150.67 121.681 150.424 121.374C150.179 121.066 150.045 120.684 150.047 120.29C150.141 103.941 140.868 87.0304 126.424 77.2077C126.069 76.9665 125.817 76.6018 125.717 76.1848C125.617 75.7677 125.676 75.3283 125.882 74.9524C126.094 74.5297 126.136 74.0417 125.998 73.5892C125.861 73.1368 125.554 72.7546 125.143 72.5217C124.731 72.2888 124.246 72.223 123.787 72.338C123.328 72.453 122.931 72.7399 122.678 73.1394C122.451 73.4962 122.101 73.7571 121.694 73.8722C121.287 73.9873 120.852 73.9487 120.471 73.7636C113.043 70.1554 102.087 67.2588 93.6185 69.946C93.3104 70.0435 92.9811 70.0525 92.6682 69.972C92.3552 69.8914 92.0712 69.7245 91.8486 69.4903C91.6259 69.2561 91.4736 68.964 91.4089 68.6474C91.3442 68.3307 91.3699 68.0023 91.4829 67.6996C91.9786 66.3726 91.7748 65.6731 91.5977 65.4895C91.4586 65.344 91.1659 65.42 91.047 65.4588C90.248 65.7216 88.7739 67.1068 88.3146 70.6285C88.2767 70.9184 88.1658 71.1938 87.9922 71.4291C87.8186 71.6643 87.5881 71.8516 87.3223 71.9733C80.5871 75.0518 75.3405 80.3493 72.1488 87.2932V87.2908Z" fill="#620504"/>
<path id="Vector_7" fill-rule="evenodd" clip-rule="evenodd" d="M92.133 95.4234C96.9518 83.9196 110.581 80.6615 122.573 88.1456C134.565 95.6297 140.381 111.03 135.563 122.532C130.744 134.033 117.114 137.294 105.122 129.81C93.1293 122.326 87.3126 106.93 92.133 95.4234Z" fill="#F64808"/>
<path id="Vector_8" d="M118.383 135.556C113.656 135.556 108.73 134.1 104.209 131.274C91.5492 123.371 85.4188 106.99 90.5424 94.7595C92.8681 89.2057 97.2243 85.1697 102.806 83.3939C109.293 81.3318 116.828 82.5327 123.485 86.6892C136.145 94.5913 142.275 110.971 137.152 123.203C134.826 128.756 130.47 132.793 124.888 134.569C122.784 135.23 120.59 135.563 118.383 135.556ZM109.315 85.8506C107.462 85.8435 105.62 86.1225 103.852 86.6779C99.2492 88.1415 95.649 91.4845 93.7228 96.0938C89.2227 106.834 94.7458 121.305 106.035 128.353C111.833 131.972 118.326 133.043 123.843 131.286C128.446 129.822 132.043 126.479 133.973 121.874C138.472 111.133 132.949 96.6623 121.66 89.6157C117.692 87.1339 113.399 85.8506 109.315 85.8506Z" fill="#620504"/>
<path id="Vector_9" d="M91.0341 111.244C90.784 111.244 90.5379 111.181 90.3179 111.063C90.098 110.944 89.911 110.772 89.7738 110.563C89.6367 110.354 89.5537 110.114 89.5323 109.865C89.5109 109.616 89.5518 109.365 89.6513 109.136C92.9578 101.515 99.5637 97.9642 108.765 98.8659C113.762 99.3592 114.949 96.9429 116.592 93.6024C117.768 91.212 119.099 88.5022 122.091 86.9439C122.445 86.763 122.857 86.7293 123.236 86.8503C123.615 86.9712 123.93 87.2369 124.114 87.5895C124.298 87.9422 124.335 88.3532 124.218 88.7331C124.1 89.1131 123.837 89.4312 123.486 89.6181C121.374 90.7195 120.366 92.767 119.301 94.9342C117.629 98.3306 115.548 102.563 108.471 101.868C100.591 101.093 95.1938 103.942 92.4201 110.333C92.3034 110.603 92.11 110.834 91.8636 110.996C91.6173 111.158 91.3289 111.244 91.0341 111.244Z" fill="white"/>
<path id="Vector_10" d="M97.8777 125.036C97.6365 125.036 97.3987 124.979 97.1844 124.868C96.9702 124.757 96.7856 124.596 96.6463 124.399C96.507 124.202 96.4171 123.975 96.3839 123.736C96.3508 123.497 96.3756 123.253 96.4561 123.026C99.7327 113.739 106.783 109.675 116.843 111.274C121.628 112.032 122.908 109.775 124.687 106.647C126.057 104.234 127.61 101.5 131.02 100.248C132.023 99.8801 133.077 99.672 134.144 99.6308C134.542 99.6187 134.928 99.7641 135.219 100.035C135.51 100.307 135.681 100.682 135.697 101.079C135.713 101.477 135.571 101.864 135.302 102.157C135.033 102.45 134.659 102.626 134.262 102.645C133.51 102.673 132.767 102.82 132.06 103.08C129.687 103.951 128.532 105.984 127.309 108.137C125.486 111.346 123.218 115.334 116.369 114.252C107.814 112.892 102.068 116.182 99.2993 124.03C99.1955 124.324 99.003 124.579 98.7484 124.759C98.4938 124.939 98.1896 125.036 97.8777 125.036Z" fill="white"/>
<path id="Vector_11" d="M105.48 131.539C105.215 131.539 104.955 131.469 104.727 131.336C104.498 131.203 104.308 131.012 104.176 130.783C104.044 130.553 103.975 130.293 103.975 130.029C103.976 129.764 104.046 129.504 104.179 129.275C107.929 122.84 114.356 120.144 122.758 121.48C127.544 122.241 128.826 119.981 130.601 116.854C131.925 114.523 133.425 111.883 136.616 110.578C136.986 110.427 137.402 110.429 137.771 110.584C138.139 110.739 138.432 111.034 138.583 111.404C138.734 111.774 138.732 112.19 138.577 112.558C138.422 112.927 138.127 113.219 137.757 113.371C135.533 114.28 134.411 116.254 133.224 118.343C131.401 121.552 129.132 125.547 122.283 124.459C115.112 123.32 109.898 125.451 106.783 130.794C106.65 131.021 106.459 131.21 106.231 131.341C106.002 131.471 105.743 131.54 105.48 131.539Z" fill="white"/>
<g id="Group_2" opacity="0.3">
<path id="Vector_12" fill-rule="evenodd" clip-rule="evenodd" d="M124.283 142.017C124.139 141.942 124.001 141.854 123.871 141.755C124.478 146.366 126.086 147.244 128.698 144.391C128.715 142.94 128.486 141.745 128.011 140.809C127.92 140.989 127.81 141.158 127.681 141.314C127.574 140.877 127.302 140.499 126.922 140.26C126.542 140.02 126.084 139.937 125.644 140.028C125.204 140.119 124.817 140.377 124.563 140.748C124.31 141.119 124.21 141.574 124.285 142.017M73.5825 112.219C71.1663 108.273 69.0727 103.847 67.3017 98.941C67.0128 103.349 67.3093 107.557 68.1912 111.566C69.0654 110.277 70.4369 109.896 72.4035 111.594C72.845 111.808 73.2316 112.016 73.5769 112.219H73.5825ZM69.3444 117.528C70.407 119.519 71.5407 121.409 72.7229 123.21C92.2228 159.72 142.7 160.834 149.783 127.758C149.077 127.777 148.331 127.405 147.544 126.644C144.772 125.411 145.235 123.349 148.933 120.458C149.492 120.436 150.052 120.488 150.599 120.612C150.62 119.743 150.624 118.861 150.592 117.954C150.926 117.307 151.26 116.641 151.592 115.954C150.546 108.736 148.623 102.287 145.823 96.6057V96.5992C143.264 91.4076 139.973 86.8568 135.951 82.9467C139.918 89.748 142.194 96.2253 142.779 102.379C141.418 102.412 140.099 102.857 138.997 103.656C140.668 103.566 141.964 103.61 142.883 103.79C142.905 104.197 142.92 104.603 142.926 105.008C145.286 107.11 145.243 108.255 142.798 108.441L142.776 108.668L140.054 108.356C140.639 109.493 141.472 110.181 142.552 110.42C141.446 117.434 137.921 123.984 131.978 130.07C128.501 132.415 124.479 134.113 120.04 135.039C119.944 134.616 119.819 134.2 119.666 133.794C104.409 132.693 94.2382 123.913 89.1523 107.455C90.0904 119.601 94.7981 128.045 103.275 132.788H103.271C106.236 134.599 105.867 135.101 102.164 134.292L101.841 134.199C101.679 133.74 101.34 133.288 100.822 132.845C100.714 134.3 100.761 135.163 100.962 135.432C100.868 135.873 100.665 136.284 100.372 136.626C100.078 136.968 99.704 137.232 99.2828 137.392C98.8616 137.553 98.4069 137.606 97.9601 137.546C97.5133 137.486 97.0886 137.315 96.7248 137.049C96.3609 136.783 96.0694 136.43 95.8768 136.022C95.6843 135.615 95.5968 135.165 95.6224 134.715C95.6479 134.265 95.7857 133.829 96.0231 133.445C96.2605 133.062 96.5901 132.744 96.9817 132.521L96.5984 132.365C97.1644 131.879 97.7042 131.364 98.2157 130.821C96.6561 130.665 95.3741 130.85 94.3698 131.375C91.0333 129.796 87.8984 127.823 85.0322 125.496C85.1632 123.056 84.5751 121.612 83.2678 121.166C83.9686 122.483 84.1333 123.672 83.7619 124.735L83.6179 124.92C81.1151 126.485 80.2669 125.248 81.1006 121.695C79.3118 120.365 78.1635 118.734 76.8147 116.95C76.3988 116.962 75.9826 116.948 75.5686 116.907C75.4796 117.105 75.3883 117.302 75.3058 117.499C73.1666 118.119 71.4415 118.233 70.1304 117.842L70.3293 118.333C69.9889 118.066 69.6638 117.803 69.3387 117.528H69.3444Z" fill="#620504"/>
</g>
<path id="Vector_13" d="M98.2052 130.821C98.4025 131.095 94.6471 135.795 97.1232 136.669C100.387 137.821 100.176 132.894 100.815 132.846C101.668 132.756 101.697 140.738 96.3534 138.85C95.2617 138.463 94.3819 137.615 94.1118 136.378C93.6347 134.202 97.1208 130.151 98.2052 130.821Z" fill="#620504"/>
<path id="Vector_14" d="M138.993 103.658C139.577 103.525 144.076 102.508 145.51 104.863C145.939 105.552 146.149 106.356 146.111 107.167C145.869 111.291 140.188 109.331 140.046 108.358C140.168 107.6 143.69 108.933 143.8 107.032C143.962 104.384 139.157 104.113 138.99 103.658" fill="#620504"/>
<path id="Vector_15" d="M122.731 79.4663C122.401 79.4682 122.076 79.3887 121.784 79.235C120.425 78.525 120.133 76.6012 120.809 72.803C120.859 72.5217 121.018 72.2718 121.253 72.1083C121.487 71.9447 121.776 71.8809 122.058 71.9309C122.339 71.9808 122.589 72.1405 122.752 72.3747C122.916 72.6089 122.98 72.8986 122.93 73.1798C122.388 76.2236 122.687 77.1042 122.791 77.304C123.011 77.2748 123.857 77.0225 125.893 74.9936C125.994 74.8938 126.113 74.8146 126.243 74.7607C126.374 74.7067 126.514 74.6791 126.656 74.6793C126.797 74.6795 126.937 74.7076 127.068 74.762C127.198 74.8163 127.317 74.8959 127.417 74.9961C127.517 75.0962 127.596 75.2151 127.65 75.3459C127.704 75.4767 127.731 75.6168 127.731 75.7583C127.731 75.8998 127.703 76.0398 127.649 76.1704C127.594 76.3011 127.515 76.4197 127.415 76.5196C125.412 78.5161 123.917 79.4663 122.731 79.4663Z" fill="#620504"/>
<path id="Vector_16" d="M153.078 119.464C154.093 119.584 154.744 119.901 154.624 120.919C154.504 121.938 153.735 123.053 152.718 122.933C149.807 120.159 146.411 123.877 145.83 123.553C146.35 119.497 149.492 119.041 153.078 119.467" fill="#620504"/>
<path id="Vector_17" d="M145.989 125.826C146.313 125.357 149.058 126.812 151.165 126.223C151.634 126.101 152.131 126.169 152.551 126.41C152.971 126.652 153.279 127.048 153.41 127.515C153.541 127.981 153.484 128.48 153.251 128.905C153.018 129.33 152.628 129.646 152.164 129.786C148.777 129.382 145.85 126.491 145.991 125.824" fill="#620504"/>
<path id="Vector_18" d="M67.9438 113.847C67.4751 113.991 66.9684 113.943 66.5351 113.713C66.1018 113.484 65.7775 113.091 65.6335 112.623C65.4895 112.154 65.5375 111.647 65.7671 111.214C65.9968 110.781 66.3891 110.456 66.8578 110.312C71.3984 108.906 74.3257 112.163 74.0944 114.343C73.7863 114.554 71.9418 112.608 67.9438 113.847Z" fill="#620504"/>
<path id="Vector_19" d="M66.9855 118.655C66.5072 118.542 66.0934 118.243 65.8352 117.825C65.577 117.407 65.4956 116.903 65.6088 116.425C65.7221 115.946 66.0207 115.532 66.439 115.274C66.8573 115.016 67.3611 114.935 67.8395 115.048C69.684 116.465 75.2856 116.166 75.5387 117.136C75.1812 118.529 68.7969 119.085 66.9855 118.655Z" fill="#620504"/>
<path id="Vector_20" d="M91.698 65.8284C91.7891 65.349 92.0661 64.9251 92.4687 64.6493C92.8712 64.3734 93.3664 64.268 93.8464 64.356C94.3264 64.444 94.752 64.7182 95.0305 65.1189C95.309 65.5196 95.4177 66.0142 95.3329 66.4947C94.9099 68.7986 91.9228 74.5812 90.2788 74.3597C90.3224 73.7507 91.123 68.9668 91.698 65.8284Z" fill="#620504"/>
<path id="Vector_21" d="M85.3322 67.5411C85.3949 67.3051 85.5036 67.0839 85.652 66.89C85.8004 66.6962 85.9857 66.5336 86.1972 66.4116C86.4087 66.2896 86.6422 66.2107 86.8844 66.1792C87.1265 66.1478 87.3724 66.1645 87.6081 66.2285C87.8437 66.2924 88.0643 66.4023 88.2574 66.5518C88.4504 66.7013 88.6119 66.8875 88.7328 67.0997C88.8536 67.3119 88.9313 67.5458 88.9614 67.7881C88.9914 68.0304 88.9733 68.2762 88.9081 68.5115C88.2984 70.762 87.7655 75.4037 85.9824 75.7999C84.9627 74.7244 84.7913 69.5328 85.3355 67.5419" fill="#620504"/>
<path id="Vector_22" fill-rule="evenodd" clip-rule="evenodd" d="M133.944 72.0138V72.0073L212.469 1.72406H226.664L228.443 13.2579L145.902 84.8697C142.493 79.9814 138.451 75.6163 133.944 72.0138Z" fill="#F8BF25"/>
<path id="Vector_23" d="M145.902 86.5929C145.54 86.5941 145.187 86.4809 144.893 86.2695C144.735 86.1548 144.597 86.0146 144.484 85.8546C141.137 81.0504 137.228 76.8479 132.868 73.3626C132.548 73.1068 132.33 72.7456 132.253 72.3437V72.338C132.196 72.0452 132.216 71.7427 132.311 71.46C132.407 71.1774 132.574 70.9243 132.796 70.7256L211.321 0.442338C211.637 0.159323 212.046 0.00294284 212.47 0.00323527H226.666C227.078 0.00327879 227.476 0.150645 227.788 0.418667C228.1 0.686688 228.307 1.05766 228.369 1.46447L230.143 12.9983C230.188 13.2862 230.159 13.5807 230.058 13.8542C229.958 14.1277 229.79 14.3713 229.57 14.5622L147.032 86.1716C146.718 86.4437 146.317 86.5933 145.902 86.5929ZM136.581 71.9563C140.167 75.0411 143.393 78.52 146.199 82.3273L226.59 12.5762L225.185 3.44406H213.127L136.581 71.9563Z" fill="#620504"/>
<g id="Group_3" opacity="0.8">
<path id="Vector_24" fill-rule="evenodd" clip-rule="evenodd" d="M135.041 71.0256L212.469 1.72406H224.386L221.689 5.66058L215.396 5.24008L136.97 74.6039L135.041 71.0256Z" fill="white"/>
</g>
<path id="Vector_25" d="M139.867 79.1784C139.516 79.178 139.174 79.0707 138.886 78.8707C138.598 78.6707 138.377 78.3875 138.254 78.0591C138.131 77.7306 138.111 77.3724 138.197 77.0323C138.283 76.6922 138.471 76.3864 138.735 76.1557L225.533 0.425343C225.702 0.26671 225.901 0.143768 226.119 0.0638728C226.336 -0.0160228 226.568 -0.0512331 226.799 -0.0396569C227.031 -0.0280806 227.258 0.030046 227.466 0.131249C227.675 0.232452 227.861 0.374656 228.013 0.549356C228.165 0.724055 228.281 0.927664 228.352 1.14802C228.424 1.36837 228.451 1.60094 228.431 1.83183C228.411 2.06271 228.344 2.28717 228.235 2.4918C228.127 2.69642 227.978 2.87699 227.797 3.02273L140.999 78.7531C140.686 79.0277 140.283 79.1789 139.867 79.1784Z" fill="#620504"/>
<path id="Vector_26" fill-rule="evenodd" clip-rule="evenodd" d="M59.8427 145.185L55.0337 144.265L2.5408 190.251L1.50815 195.683L5.98081 198.492L10.0475 195.017L61.0258 151.839L59.8427 145.185Z" fill="#F8BF25"/>
<path id="Vector_27" d="M5.98079 200C5.69704 200 5.41901 199.92 5.1786 199.77L0.705943 196.959C0.449021 196.798 0.246734 196.563 0.125538 196.285C0.00434292 196.007 -0.030114 195.699 0.0266777 195.401L1.05933 189.969C1.12123 189.639 1.29206 189.339 1.54452 189.117L54.0374 143.132C54.2098 142.98 54.4144 142.87 54.6357 142.81C54.857 142.75 55.0891 142.741 55.3143 142.785L60.1233 143.704C60.4228 143.761 60.6979 143.907 60.9124 144.124C61.127 144.341 61.2708 144.617 61.325 144.917L62.508 151.571C62.5542 151.831 62.5314 152.099 62.4418 152.347C62.3523 152.595 62.1992 152.815 61.9978 152.986L11.0219 196.168L6.96087 199.639C6.68767 199.872 6.34011 200 5.98079 200ZM3.18204 194.953L5.84412 196.625L9.06741 193.871L59.389 151.25L58.54 146.473L55.4736 145.887L3.92519 191.043L3.18204 194.953Z" fill="#620504"/>
<path id="Vector_28" d="M9.00031 196.99C8.80258 196.99 8.60865 196.936 8.43977 196.833C8.27088 196.73 8.13357 196.583 8.04287 196.407L6.04064 192.539L2.20359 191.272C1.93218 191.183 1.70741 190.989 1.57874 190.734C1.45006 190.479 1.42801 190.183 1.51744 189.912C1.60688 189.64 1.80047 189.415 2.05562 189.287C2.31077 189.158 2.60659 189.136 2.878 189.226L7.13313 190.628C7.40073 190.716 7.6231 190.906 7.75256 191.156L9.95614 195.415C10.0407 195.579 10.0818 195.762 10.0753 195.947C10.0688 196.132 10.015 196.311 9.91907 196.469C9.82313 196.627 9.68827 196.758 9.52739 196.848C9.36652 196.939 9.18503 196.987 9.00031 196.988V196.99Z" fill="#620504"/>
<path id="Vector_29" d="M7.01101 193.145C6.79181 193.145 6.57777 193.079 6.39745 192.954C6.21714 192.829 6.07914 192.653 6.00188 192.448C5.92463 192.242 5.9118 192.019 5.96511 191.806C6.01841 191.593 6.13532 191.402 6.30021 191.258L59.1327 144.978C59.2377 144.878 59.362 144.8 59.498 144.748C59.634 144.697 59.7791 144.674 59.9243 144.68C60.0696 144.686 60.212 144.722 60.3432 144.785C60.4743 144.848 60.5913 144.936 60.6872 145.046C60.7832 145.155 60.856 145.282 60.9013 145.421C60.9466 145.559 60.9635 145.705 60.9509 145.849C60.9384 145.994 60.8966 146.135 60.8282 146.263C60.7597 146.392 60.666 146.505 60.5527 146.596L7.7202 192.875C7.52447 193.048 7.27237 193.144 7.01101 193.145Z" fill="#620504"/>
<path id="Vector_30" d="M69.2708 159.588C69.0041 159.588 68.7411 159.526 68.5026 159.406C62.5889 156.456 59.436 153.221 58.8651 149.518C58.3799 146.39 59.8395 143.16 63.193 139.915C63.5236 139.609 63.9612 139.444 64.4119 139.457C64.8626 139.469 65.2906 139.657 65.604 139.981C65.9175 140.305 66.0916 140.739 66.0889 141.19C66.0863 141.641 65.9071 142.073 65.5898 142.393C63.083 144.814 61.9703 147.035 62.2743 148.993C62.6568 151.474 65.2663 153.941 70.0431 156.322C70.3904 156.496 70.669 156.782 70.8336 157.134C70.9983 157.485 71.0393 157.882 70.9501 158.26C70.861 158.638 70.6468 158.975 70.3423 159.216C70.0377 159.457 69.6608 159.588 69.2724 159.588H69.2708Z" fill="#620504"/>
<path id="Vector_31" d="M57.9278 146.491C54.597 146.491 50.8004 144.706 46.5719 141.142C46.3934 140.998 46.2454 140.82 46.1366 140.618C46.0279 140.416 45.9606 140.194 45.9387 139.966C45.9167 139.737 45.9406 139.507 46.0089 139.288C46.0772 139.068 46.1885 138.865 46.3364 138.69C46.4843 138.514 46.6657 138.37 46.87 138.266C47.0743 138.161 47.2974 138.099 47.5262 138.081C47.7551 138.064 47.985 138.093 48.2026 138.166C48.4201 138.239 48.621 138.354 48.7933 138.506C57.2097 145.6 60.6433 142.468 61.773 141.441C61.9401 141.288 62.1357 141.169 62.3487 141.092C62.5617 141.015 62.7878 140.98 63.0141 140.99C63.2405 141 63.4626 141.055 63.6677 141.151C63.8729 141.247 64.057 141.383 64.2097 141.551C64.3624 141.718 64.4805 141.914 64.5574 142.127C64.6343 142.34 64.6685 142.566 64.6578 142.792C64.6472 143.019 64.5921 143.241 64.4956 143.446C64.3991 143.651 64.2631 143.835 64.0954 143.987C62.2646 145.657 60.2088 146.491 57.9278 146.491Z" fill="#620504"/>
<path id="Vector_32" d="M45.7285 150.792C45.1726 150.796 44.6197 150.711 44.091 150.54C42.8845 150.14 41.9351 149.266 41.3416 148.012C41.1469 147.598 41.1246 147.124 41.2794 146.694C41.4342 146.264 41.7536 145.913 42.1672 145.718C42.5808 145.524 43.0548 145.501 43.4849 145.656C43.9149 145.811 44.2659 146.13 44.4605 146.544C44.7031 147.056 44.9667 147.2 45.1713 147.267C45.5538 147.394 46.7345 147.533 49.4257 146.094C49.8287 145.878 50.301 145.831 50.7384 145.964C51.1758 146.097 51.5427 146.398 51.7582 146.801C51.9738 147.204 52.0203 147.676 51.8877 148.113C51.7551 148.551 51.4541 148.918 51.051 149.133C48.9825 150.242 47.2229 150.792 45.7285 150.792Z" fill="#620504"/>
<path id="Vector_33" d="M60.0311 166.537C59.7634 166.538 59.4993 166.476 59.2598 166.356C59.0203 166.236 58.812 166.063 58.6516 165.848C56.0978 162.446 54.2121 157.059 59.7246 150.709C59.8733 150.539 60.0542 150.399 60.2569 150.298C60.4597 150.197 60.6803 150.137 60.9063 150.121C61.1322 150.105 61.359 150.134 61.5738 150.206C61.7885 150.278 61.987 150.392 62.1579 150.54C62.3287 150.689 62.4687 150.87 62.5696 151.073C62.6706 151.275 62.7306 151.496 62.7463 151.722C62.762 151.948 62.7331 152.175 62.6611 152.39C62.5891 152.604 62.4756 152.803 62.3269 152.974C59.0227 156.78 58.73 160.215 61.4083 163.783C61.6001 164.039 61.717 164.343 61.7459 164.661C61.7748 164.98 61.7146 165.3 61.5719 165.586C61.4293 165.872 61.2099 166.113 60.9382 166.282C60.6665 166.451 60.3533 166.54 60.0336 166.541L60.0311 166.537Z" fill="#620504"/>
<path id="Vector_34" d="M123.843 139.65C124.166 139.744 124.127 145.76 126.612 144.914C129.888 143.799 126.673 140.062 127.146 139.627C127.76 139.028 132.726 145.279 127.357 147.104C126.261 147.476 125.045 147.355 124.067 146.55C122.345 145.135 122.573 139.794 123.843 139.65Z" fill="#620504"/>
<path id="Vector_35" d="M83.2565 121.162C83.0672 121.272 84.0182 125.055 82.3225 124.904C80.0865 124.706 81.5364 121.857 81.1717 121.655C80.693 121.372 78.5291 126.075 82.1898 126.399C82.9378 126.464 83.6858 126.201 84.1775 125.543C85.0436 124.385 84.078 121.057 83.2565 121.162Z" fill="#620504"/>
<path id="Vector_36" d="M83.7918 94.9156C83.2079 95.049 78.7086 96.0663 77.2756 93.7107C76.8457 93.0213 76.6354 92.2176 76.6724 91.406C76.919 87.2819 82.5958 89.2421 82.7373 90.2165C82.6152 90.9742 79.0927 89.6415 78.9819 91.5427C78.8202 94.1902 83.6252 94.4603 83.7934 94.9156" fill="#620504"/>
<g id="Group_4" opacity="0.3">
<path id="Vector_37" d="M83.5653 94.9657C83.457 95.5746 74.899 97.3108 75.2564 91.2847C75.499 87.1606 81.7532 88.7884 81.8874 89.7629C81.7661 90.5206 77.6711 89.5203 77.5595 91.4206C77.4018 94.0681 83.3923 94.5096 83.5613 94.9657" fill="#620504"/>
</g>
<g id="Group_5" opacity="0.3">
<g id="Clip path group">
<mask id="mask0_6_78" style="mask-type:luminance" maskUnits="userSpaceOnUse" x="120" y="72" width="8" height="8">
<g id="clip-path">
<path id="Vector_38" d="M127.249 72.6606H120.763V79.5002H127.249V72.6606Z" fill="white"/>
</g>
</mask>
<g mask="url(#mask0_6_78)">
<g id="Group_6">
<path id="Vector_39" d="M122.283 80.5822C121.908 80.5846 121.539 80.4949 121.207 80.321C119.637 79.5002 119.301 77.0791 120.121 72.4722C120.146 72.3329 120.198 72.1999 120.274 72.0807C120.35 71.9615 120.449 71.8585 120.565 71.7776C120.681 71.6966 120.812 71.6393 120.95 71.6089C121.089 71.5786 121.231 71.5757 121.371 71.6005C121.51 71.6253 121.643 71.6773 121.762 71.7535C121.881 71.8297 121.984 71.9286 122.065 72.0446C122.146 72.1606 122.204 72.2915 122.234 72.4296C122.264 72.5678 122.267 72.7106 122.242 72.8499C121.359 77.8174 122.197 78.4077 122.206 78.4118C122.215 78.4158 123.186 78.6964 126.492 75.406C126.696 75.2129 126.968 75.1072 127.249 75.1114C127.53 75.1156 127.798 75.2294 127.996 75.4285C128.194 75.6275 128.307 75.8962 128.31 76.1772C128.313 76.4582 128.207 76.7293 128.013 76.9327C125.526 79.4064 123.699 80.5822 122.283 80.5822Z" fill="#620504"/>
</g>
</g>
</g>
</g>
<g id="Group_7" opacity="0.3">
<path id="Vector_40" fill-rule="evenodd" clip-rule="evenodd" d="M125.165 72.0137C125.665 72.1148 126.132 72.3399 126.522 72.6686C126.912 72.9972 127.214 73.4187 127.399 73.8944C127.584 74.37 127.646 74.8845 127.58 75.3904C127.514 75.8964 127.321 76.3777 127.021 76.7899C126.72 77.2021 126.32 77.5321 125.859 77.7495C125.397 77.9669 124.888 78.0647 124.379 78.0339C123.869 78.0031 123.376 77.8447 122.944 77.5733C122.512 77.3019 122.155 76.9262 121.906 76.4807C124.744 75.7993 125.831 74.3103 125.165 72.0137Z" fill="#620504"/>
</g>
<g id="Group_8" opacity="0.3">
<path id="Vector_41" fill-rule="evenodd" clip-rule="evenodd" d="M96.562 68.9045C94.6951 68.022 92.6007 69.8404 90.2788 74.3597C93.8201 73.5941 95.9146 71.7758 96.562 68.9045Z" fill="#620504"/>
</g>
<g id="Group_9" opacity="0.3">
<path id="Vector_42" fill-rule="evenodd" clip-rule="evenodd" d="M84.6142 72.4941C86.3107 72.4262 86.7668 73.5278 85.9824 75.7991C84.7646 74.7656 84.3085 73.664 84.6142 72.4941Z" fill="#620504"/>
</g>
<g id="Group_10" opacity="0.6">
<path id="Vector_43" fill-rule="evenodd" clip-rule="evenodd" d="M92.133 95.4234C96.9534 83.9196 110.581 80.6615 122.574 88.1456C130.57 93.1366 135.818 101.645 137 110.172C136.468 110.81 135.904 111.43 135.307 112.032C132.375 99.9082 123.271 91.2233 114.116 88.9939C114.488 89.3327 114.691 89.7103 114.673 90.1009C114.616 91.3535 112.313 92.2632 109.533 92.1339C106.753 92.0045 104.544 90.8861 104.6 89.6343C104.609 89.4688 104.655 89.3074 104.734 89.1621C98.6588 91.081 93.6662 96.892 92.0441 107.727C91.463 106.852 90.9314 105.945 90.4518 105.01C90.341 101.69 90.8731 98.4227 92.1306 95.4218" fill="white"/>
</g>
<path id="Vector_44" d="M118.383 135.556C113.656 135.556 108.73 134.1 104.209 131.274C91.5492 123.371 85.4188 106.99 90.5424 94.7595C92.8681 89.2057 97.2243 85.1697 102.806 83.3939C109.293 81.3318 116.828 82.5327 123.485 86.6892C136.145 94.5913 142.275 110.971 137.152 123.203C134.826 128.756 130.47 132.793 124.888 134.569C122.784 135.23 120.59 135.563 118.383 135.556ZM109.315 85.8506C107.462 85.8435 105.62 86.1225 103.852 86.6779C99.2492 88.1415 95.649 91.4845 93.7228 96.0938C89.2227 106.834 94.7458 121.305 106.035 128.353C111.833 131.972 118.326 133.043 123.843 131.286C128.446 129.822 132.043 126.479 133.973 121.874C138.472 111.133 132.949 96.6623 121.66 89.6157C117.692 87.1339 113.399 85.8506 109.315 85.8506Z" fill="#620504"/>
<g id="Group_11" opacity="0.3">
<path id="Vector_45" fill-rule="evenodd" clip-rule="evenodd" d="M91.2936 109.517C98.2319 123.092 115.054 138.576 129.819 125.9C133.839 122.449 135.586 117.015 135.376 111.721C135.876 112.118 136.349 112.548 136.792 113.008C136.767 110.597 136.329 108.054 135.406 105.441C138.681 123.694 112.929 134.897 91.2936 109.517Z" fill="#620504"/>
</g>
<g id="Group_12" opacity="0.5">
<path id="Vector_46" fill-rule="evenodd" clip-rule="evenodd" d="M92.5681 187.514C109.607 175.451 122.386 165.555 130.06 158.552C107.287 162.16 86.4417 153.53 72.351 132.664C70.3978 137.371 68.2074 141.664 65.7798 145.541C63.8736 149.112 65.5408 152.784 70.7814 156.557C65.8033 155.386 62.9962 153.375 62.3601 150.523C60.6911 152.747 58.872 154.854 56.9154 156.83C57.2351 156.877 57.547 156.967 57.8429 157.097C58.0731 157.702 58.2801 158.28 58.464 158.831C58.4101 157.073 59.2187 155.269 60.8899 153.418C64.49 155.144 67.2252 157.255 69.0953 159.754C65.741 159.23 63.2773 158.184 61.7042 156.617C60.9285 159.027 60.9384 161.632 61.7342 164.431C60.595 163.457 59.754 162.468 59.2112 161.463C59.7179 163.751 59.6344 165.364 58.9605 166.299C56.1949 164.745 54.9194 162.161 55.1339 158.547C51.6634 161.757 47.7704 164.478 43.5629 166.633C56.6574 181.037 74.3216 188.238 92.5673 187.515" fill="#620504"/>
</g>
<g id="Group_13" opacity="0.3">
<path id="Vector_47" fill-rule="evenodd" clip-rule="evenodd" d="M38.4328 126.154C40.2119 128.418 44.3772 123.653 42.9427 122.111C40.22 119.182 36.9174 124.221 38.4328 126.154ZM58.671 107.474C55.1056 102.497 41.4467 116.466 45.1115 120.008C48.5046 123.29 60.0942 109.462 58.671 107.476V107.474Z" fill="white"/>
</g>
<g id="Group_14" opacity="0.3">
<path id="Vector_48" fill-rule="evenodd" clip-rule="evenodd" d="M228.439 13.2579L227.32 5.98566L142.957 80.9647L146.155 84.6506L228.439 13.2579Z" fill="#620504"/>
</g>
<g id="Group_15" opacity="0.3">
<path id="Vector_49" fill-rule="evenodd" clip-rule="evenodd" d="M61.0258 151.839L60.4347 148.512L7.89731 193.781L2.02488 192.966L1.50815 195.683L5.98081 198.492L61.0258 151.839Z" fill="#620504"/>
</g>
<path id="Vector_50" d="M145.902 86.5929C145.54 86.5941 145.187 86.4809 144.893 86.2695C144.735 86.1548 144.597 86.0146 144.484 85.8546C141.137 81.0504 137.228 76.8479 132.868 73.3626C132.548 73.1068 132.33 72.7456 132.253 72.3437V72.338C132.196 72.0452 132.216 71.7427 132.311 71.46C132.407 71.1774 132.574 70.9243 132.796 70.7256L211.321 0.442338C211.637 0.159323 212.046 0.00294284 212.47 0.00323527H226.666C227.078 0.00327879 227.476 0.150645 227.788 0.418667C228.1 0.686688 228.307 1.05766 228.369 1.46447L230.143 12.9983C230.188 13.2862 230.159 13.5807 230.058 13.8542C229.958 14.1277 229.79 14.3713 229.57 14.5622L147.032 86.1716C146.718 86.4437 146.317 86.5933 145.902 86.5929ZM136.581 71.9563C140.167 75.0411 143.393 78.52 146.199 82.3273L226.59 12.5762L225.185 3.44406H213.127L136.581 71.9563Z" fill="#620504"/>
</g>
<defs>
<clipPath id="clip0_6_78">
<rect width="230.162" height="200" fill="white"/>
</clipPath>
</defs>
</svg>
